HIERARCHY
ROOT Hips
{
  OFFSET -211.829 106.579 -219.428
  CHANNELS 6 Xposition Yposition Zposition Zrotation Xrotation Yrotation
  JOINT ToSpine
  {
    OFFSET -2.69724 7.43032 -0.144315
    CHANNELS 3 Zrotation Xrotation Yrotation
    JOINT Spine
    {
      OFFSET -0.0310711 10.7595 1.96963
      CHANNELS 3 Zrotation Xrotation Yrotation
      JOINT Spine1
      {
        OFFSET 19.9056 3.91189 0.764692
        CHANNELS 3 Zrotation Xrotation Yrotation
        JOINT Neck
        {
          OFFSET 25.9749 7.03908 -0.130764
          CHANNELS 3 Zrotation Xrotation Yrotation
          JOINT Head
          {
            OFFSET 9.52751 0.295786 -0.907742
            CHANNELS 3 Zrotation Xrotation Yrotation
            End Site
            {
              OFFSET 16.4037 0.713936 2.7358
            }
          }
        }
        JOINT LeftShoulder
        {
          OFFSET 17.7449 4.33886 11.7777
          CHANNELS 3 Zrotation Xrotation Yrotation
          JOINT LeftArm
          {
            OFFSET 0.911315 1.27913 9.80584
            CHANNELS 3 Zrotation Xrotation Yrotation
            JOINT LeftForeArm
            {
              OFFSET 28.6126 1.18197 -3.53199
              CHANNELS 3 Zrotation Xrotation Yrotation
              JOINT LeftHand
              {
                OFFSET 27.5088 0.0218783 0.327423
                CHANNELS 3 Zrotation Xrotation Yrotation
                End Site
                {
                  OFFSET 18.6038 -0.000155887 0.382096
                }
              }
            }
          }
        }
        JOINT RightShoulder
        {
          OFFSET 17.1009 2.89543 -12.2328
          CHANNELS 3 Zrotation Xrotation Yrotation
          JOINT RightArm
          {
            OFFSET 1.4228 0.178766 -10.211
            CHANNELS 3 Zrotation Xrotation Yrotation
            JOINT RightForeArm
            {
              OFFSET 28.733 1.87905 2.64907
              CHANNELS 3 Zrotation Xrotation Yrotation
              JOINT RightHand
              {
                OFFSET 27.4588 0.290562 -0.101845
                CHANNELS 3 Zrotation Xrotation Yrotation
                End Site
                {
                  OFFSET 17.8396 -0.255518 -0.000602873
                }
              }
            }
          }
        }
      }
    }
  }
  JOINT LeftUpLeg
  {
    OFFSET -5.61296 -2.22332 -10.2353
    CHANNELS 3 Zrotation Xrotation Yrotation
    JOINT LeftLeg
    {
      OFFSET 2.56703 -44.7417 -7.93097
      CHANNELS 3 Zrotation Xrotation Yrotation
      JOINT LeftFoot
      {
        OFFSET 3.16933 -46.5642 -3.96578
        CHANNELS 3 Zrotation Xrotation Yrotation
        JOINT LeftToeBase
        {
          OFFSET 0.346054 -6.02161 12.8035
          CHANNELS 3 Zrotation Xrotation Yrotation
          End Site
          {
            OFFSET 0.134235 -1.35082 5.13018
          }
        }
      }
    }
  }
  JOINT RightUpLeg
  {
    OFFSET -5.7928 -1.72406 10.6446
    CHANNELS 3 Zrotation Xrotation Yrotation
    JOINT RightLeg
    {
      OFFSET -2.57161 -44.7178 -7.85259
      CHANNELS 3 Zrotation Xrotation Yrotation
      JOINT RightFoot
      {
        OFFSET -3.10148 -46.5936 -4.03391
        CHANNELS 3 Zrotation Xrotation Yrotation
        JOINT RightToeBase
        {
          OFFSET -0.0828122 -6.13587 12.8035
          CHANNELS 3 Zrotation Xrotation Yrotation
          End Site
          {
            OFFSET -0.131328 -1.35082 5.13018
          }
        }
      }
    }
  }
}
MOTION
Frames:	8
Frame Time:	0.0333333
-212.091 106.575 -219.472 68.2016 -39.8434 -14.5991 -70.1915 0 88.8779 69.811 69.7352 13.8809 5.47613 18.7127 5.50715 -153.474 31.8761 172.695 -166.354 71.6516 -175.755 2.17596 -4.32621 -32.6416 -101.089 50.6087 -93.7472 -16.78 49.6733 11.5601 10.703 -0.394972 -2.46383 0.262163 -0.839823 44.9154 -74.7905 -35.2711 95.7162 -5.99006 -4.73285 12.3588 15.5208 -0.224877 -2.08412 -60.7961 -2.79536 95.5644 1.64644 14.432 4.00074 4.27237 -2.08198 -0.700393 -0.366888 -0.558236 1.44614 -61.7411 4.69924 81.5864 -0.327441 14.8903 -6.70053 -6.90999 -1.89629 1.03017 -0.0935808 -1.3843 -1.31882 
-212.092 106.585 -219.481 67.9525 -39.8387 -14.6619 -70.1915 0 88.8779 69.3694 69.6658 14.5317 5.58347 18.7122 5.43197 -153.569 31.9906 172.942 -167.631 71.8065 -174.535 2.16742 -4.50762 -33.2116 -100.881 49.9771 -93.8345 -16.7935 49.4532 11.5071 10.3847 -0.385713 -2.49026 0.263568 -0.838419 45.0128 -74.4286 -35.1017 95.922 -5.96333 -4.34822 12.5406 15.5195 -0.287506 -2.56329 -60.5422 -2.71673 95.5365 1.7085 14.5171 4.06452 4.20765 -2.16286 -0.696641 -0.292138 -0.398786 1.30427 -61.6856 4.86145 81.7096 -0.333559 14.5908 -6.78419 -6.93153 -1.71103 1.03039 -0.0916854 -1.41266 -1.37692 
-212.074 106.588 -219.494 67.9933 -39.8653 -14.6899 -70.1915 0 88.8779 70.1016 69.7486 13.7287 5.29347 18.7113 5.48227 -153.364 31.9192 173.09 -168.494 71.7584 -173.451 2.17708 -4.48833 -33.3217 -100.559 49.7742 -93.8718 -16.8276 49.1837 11.443 9.9409 -0.360301 -2.39077 0.262795 -0.835731 45.0601 -77.6872 -34.9987 94.8443 -6.46542 -7.05671 10.9467 15.9705 -0.298861 -2.58208 -60.662 -2.7753 95.5221 1.67743 14.3781 4.09051 4.2699 -2.10299 -0.700876 -0.29703 -0.394875 1.37382 -61.6755 4.80801 81.6991 -0.385369 14.6994 -6.75686 -6.82089 -1.90353 1.02086 -0.0488167 -1.14651 -1.31133 
-212.037 106.589 -219.492 67.9606 -39.8574 -14.7406 -70.1915 0 88.8779 69.7869 69.7618 13.9728 5.49677 18.7517 5.48287 -153.527 31.9311 173.114 -169.203 71.789 -173.065 2.15849 -4.58785 -33.3719 -100.604 49.7419 -93.8449 -16.8041 49.1824 11.4428 9.45796 -0.362301 -2.61794 0.275265 -0.875703 45.2052 -76.5632 -34.8475 95.4255 -6.29594 -5.93356 11.5556 16.2354 -0.502335 -4.02742 -60.6939 -2.86598 95.437 1.72122 14.2969 4.17658 4.25868 -2.07004 -0.698571 -0.297097 -0.394531 1.37599 -61.6386 4.67613 81.5734 -0.272389 14.7754 -6.59636 -6.80846 -1.90444 1.01956 -0.048468 -1.17142 -1.35126 
-211.988 106.587 -219.461 67.98 -39.7678 -14.8472 -70.1915 0 88.8779 69.9625 69.7767 13.5044 5.30438 18.6827 5.73172 -153.298 31.9468 172.945 -169.054 71.808 -172.777 2.17853 -4.54523 -33.5906 -100.557 49.4772 -93.8355 -16.8676 49.2621 11.4614 8.91396 -0.351056 -2.73542 0.252454 -0.800834 45.5541 -75.7901 -34.3541 95.4606 -6.35919 -5.29932 11.7282 16.0739 -0.357563 -2.99963 -60.8556 -3.06162 95.3281 1.72029 14.0208 4.25759 4.29707 -1.94643 -0.698207 -0.310898 -0.436654 1.34851 -61.5357 4.52179 81.5126 -0.337051 15.0393 -6.54935 -6.70118 -2.07754 1.01052 -0.0355934 -1.12597 -1.3832 
-211.935 106.577 -219.468 67.7912 -39.7042 -15.1454 -70.1915 0 88.8779 69.4087 69.744 13.8848 5.37114 18.7369 5.64386 -153.179 31.8262 172.536 -167.999 71.6727 -173.775 2.13711 -4.69941 -33.4194 -100.269 49.4374 -93.8905 -16.8876 48.9255 11.3824 8.28635 -0.329045 -2.76944 0.263742 -0.836476 45.7288 -75.56 -34.3858 95.6305 -6.30952 -4.55919 11.9992 16.1296 -0.522912 -4.20373 -60.8672 -3.34339 95.1294 1.73166 13.7141 4.52919 4.3511 -1.78328 -0.698205 -0.360366 -0.56288 1.35418 -61.1747 4.28305 81.4417 -0.385615 15.4697 -6.43036 -6.58224 -2.25398 1.00066 -0.0366497 -1.12669 -1.3761 
-211.829 106.579 -219.428 68.2647 -39.7578 -14.7881 -70.1915 0 88.8779 70.8961 69.8098 12.4215 5.32191 18.6693 5.5433 -153.263 31.78 172.531 -168.428 71.6399 -173.232 2.16073 -4.55762 -33.2884 -100.267 49.5915 -93.861 -16.9082 48.9584 11.3899 7.68311 -0.307166 -2.79659 0.262678 -0.833715 45.5382 -75.0568 -34.5322 95.9404 -6.39199 -4.14002 12.064 16.2279 -0.476405 -3.84012 -61.3655 -3.33579 95.2012 1.76844 13.6137 4.35795 4.39048 -1.73738 -0.700781 -0.442559 -0.770289 1.37386 -61.7015 4.32694 81.4069 -0.427856 15.3282 -6.40882 -6.49224 -2.25618 0.99148 -0.0215106 -1.07907 -1.42213 
-211.776 106.582 -219.438 68.1304 -39.6929 -14.7515 -70.1915 0 88.8779 70.8775 69.7408 12.732 5.51818 18.6964 5.2109 -153.061 31.7741 172.115 -166.821 71.5996 -174.501 2.11666 -4.59289 -32.552 -100.804 50.3759 -93.549 -16.7994 49.3161 11.4744 7.46378 -0.306558 -2.91514 0.247842 -0.786719 45.1913 -76.1301 -35.1099 95.6019 -6.28954 -5.19158 11.808 16.3578 -0.506919 -4.03169 -61.1958 -3.23173 95.2506 1.75687 13.7195 4.21833 4.47021 -1.68785 -0.707537 -0.586023 -1.13654 1.39036 -61.673 4.39224 81.402 -0.360215 15.1927 -6.46445 -6.49158 -2.17704 0.990235 -0.0271471 -1.14127 -1.47158 
